<svg id="svg" xmlns="http://www.w3.org/2000/svg" xmlns:xlink="http://www.w3.org/1999/xlink" width="400" height="401.28068303094983" viewBox="0, 0, 400,401.28068303094983"><g id="svgg"><path id="path0" d="M312.000 58.425 C 309.690 59.068,302.670 60.967,296.400 62.645 C 290.130 64.322,279.780 67.093,273.400 68.802 C 267.020 70.511,257.390 73.088,252.000 74.529 C 240.335 77.647,239.920 77.790,234.834 80.402 C 219.410 88.325,210.049 103.062,208.950 121.148 L 208.686 125.501 200.843 127.611 C 196.529 128.772,189.130 130.754,184.400 132.015 C 179.670 133.276,168.600 136.242,159.800 138.607 C 151.000 140.971,138.850 144.228,132.800 145.844 C 122.466 148.605,117.019 150.063,87.600 157.947 C 50.347 167.929,54.986 167.085,54.657 163.941 C 51.798 136.588,64.600 108.474,87.107 92.681 C 91.847 89.355,100.931 84.504,104.563 83.359 C 106.579 82.724,107.212 82.000,105.753 82.000 C 105.423 82.000,105.245 82.149,105.357 82.330 C 105.531 82.612,99.474 84.404,97.625 84.617 C 97.281 84.656,96.710 84.814,96.356 84.966 C 96.002 85.118,95.274 85.289,94.739 85.346 C 94.204 85.403,93.549 85.584,93.283 85.749 C 93.017 85.913,92.632 85.944,92.428 85.817 C 92.223 85.691,91.952 85.754,91.826 85.959 C 91.637 86.264,89.663 86.788,87.800 87.026 C 87.580 87.054,87.130 87.193,86.800 87.334 C 86.135 87.619,84.562 87.925,83.529 87.970 C 83.159 87.987,82.617 88.240,82.323 88.534 C 81.851 89.006,76.798 90.463,75.193 90.590 C 74.859 90.616,74.409 90.741,74.193 90.866 C 73.747 91.126,69.715 92.113,68.793 92.188 C 68.459 92.215,68.009 92.341,67.793 92.466 C 67.446 92.668,65.175 93.244,62.500 93.810 C 61.418 94.038,60.184 94.303,58.697 94.626 C 58.090 94.757,57.672 94.994,57.770 95.151 C 57.906 95.372,48.979 97.763,43.400 98.999 C 40.287 99.689,37.321 100.626,36.890 101.055 C 36.337 101.605,36.967 105.200,37.616 105.200 C 37.913 105.200,38.456 107.000,38.583 108.407 C 38.613 108.741,38.741 109.191,38.866 109.407 C 39.070 109.757,39.618 111.921,40.233 114.800 C 40.517 116.129,40.602 116.455,40.909 117.400 C 41.052 117.840,41.260 118.740,41.373 119.400 C 41.933 122.698,43.795 129.532,44.029 129.153 C 44.176 128.916,44.410 129.324,44.550 130.060 C 44.835 131.569,45.106 132.822,45.400 134.000 C 45.510 134.440,45.690 135.160,45.800 135.600 C 45.910 136.040,46.080 136.761,46.177 137.202 C 46.275 137.642,46.437 138.137,46.538 138.302 C 46.638 138.466,46.823 139.243,46.947 140.028 C 47.071 140.814,47.460 142.524,47.810 143.828 C 48.160 145.133,48.522 146.560,48.613 147.000 C 49.094 149.318,50.176 153.058,50.481 153.459 C 50.673 153.712,50.924 154.342,51.038 154.859 C 51.329 156.172,51.413 156.488,51.709 157.400 C 51.852 157.840,52.056 158.650,52.164 159.200 C 52.271 159.750,52.458 160.605,52.579 161.100 C 52.701 161.595,52.880 162.361,52.977 162.802 C 53.075 163.242,53.240 163.741,53.344 163.910 C 53.449 164.079,53.654 165.019,53.800 166.000 C 53.946 166.981,54.151 167.921,54.256 168.090 C 54.445 168.397,54.599 168.972,55.192 171.600 C 55.366 172.370,55.529 172.730,55.555 172.400 C 55.603 171.777,56.141 171.619,79.600 165.355 C 85.650 163.739,95.640 161.067,101.800 159.418 C 112.918 156.440,130.170 151.824,143.600 148.233 C 147.450 147.203,155.550 145.031,161.600 143.405 C 171.624 140.712,183.366 137.565,201.823 132.626 C 205.576 131.622,208.841 130.800,209.078 130.800 C 209.537 130.800,210.651 135.882,210.274 136.259 C 210.152 136.382,205.135 137.791,199.126 139.390 C 177.882 145.045,172.501 146.484,163.200 148.996 C 158.030 150.393,147.950 153.094,140.800 155.000 C 133.650 156.906,123.570 159.607,118.400 161.004 C 113.230 162.400,105.490 164.479,101.200 165.623 C 90.564 168.458,71.594 173.532,63.692 175.653 L 57.184 177.400 57.393 178.719 C 57.508 179.444,57.953 181.154,58.381 182.519 C 58.810 183.884,59.249 185.540,59.357 186.200 C 59.465 186.860,59.747 188.120,59.985 189.000 C 60.222 189.880,60.587 191.230,60.796 192.000 C 61.004 192.770,61.554 195.018,62.018 196.995 C 62.482 198.973,63.011 200.683,63.195 200.797 C 63.378 200.910,64.177 203.702,64.971 207.001 C 65.764 210.301,66.583 213.630,66.789 214.400 C 66.996 215.170,67.659 217.912,68.263 220.493 C 68.867 223.074,69.482 224.991,69.629 224.753 C 69.776 224.516,70.010 224.924,70.150 225.660 C 70.605 228.068,70.710 228.504,71.765 232.400 C 72.092 233.610,72.440 235.050,72.537 235.600 C 72.634 236.150,72.931 237.409,73.198 238.398 C 73.695 240.237,73.859 240.920,74.186 242.500 C 74.634 244.663,75.353 247.037,75.694 247.479 C 75.897 247.743,76.157 248.553,76.271 249.279 C 76.386 250.006,76.648 250.915,76.854 251.300 C 77.060 251.685,77.125 252.000,77.000 252.000 C 76.875 252.000,76.940 252.315,77.146 252.700 C 77.352 253.085,77.618 253.940,77.737 254.600 C 77.856 255.260,78.053 256.205,78.176 256.700 C 78.299 257.195,78.480 257.961,78.577 258.402 C 78.675 258.842,78.840 259.341,78.944 259.510 C 79.049 259.679,79.248 260.582,79.387 261.516 C 79.527 262.451,79.882 263.899,80.177 264.735 C 80.472 265.570,80.933 267.314,81.202 268.611 C 81.471 269.907,81.927 271.335,82.214 271.784 C 82.502 272.233,82.848 273.230,82.984 274.000 C 83.120 274.770,83.284 275.580,83.348 275.800 C 84.224 278.791,84.530 279.929,84.642 280.600 C 84.807 281.600,84.950 282.190,85.514 284.200 C 85.760 285.080,86.048 286.250,86.153 286.800 C 86.655 289.434,88.104 294.618,88.388 294.798 C 88.564 294.909,89.351 297.545,90.138 300.654 C 91.504 306.058,91.724 306.995,92.216 309.500 C 92.334 310.105,92.548 310.960,92.691 311.400 C 92.834 311.840,92.996 312.460,93.052 312.778 C 93.459 315.122,94.539 318.762,94.782 318.611 C 95.043 318.450,95.290 319.304,96.228 323.600 C 96.525 324.956,96.607 325.270,96.909 326.200 C 97.052 326.640,97.256 327.450,97.364 328.000 C 97.547 328.936,97.710 329.641,98.200 331.600 C 98.310 332.040,98.490 332.760,98.600 333.200 C 98.710 333.640,98.890 334.360,99.000 334.800 C 99.110 335.240,99.273 335.915,99.363 336.300 C 99.452 336.685,99.811 338.219,100.159 339.708 C 100.507 341.198,101.055 342.818,101.377 343.308 C 101.698 343.799,101.938 344.380,101.909 344.600 C 101.799 345.445,103.427 345.187,110.888 343.177 C 115.130 342.034,122.830 339.970,128.000 338.590 C 178.112 325.213,179.035 324.952,183.074 323.019 C 199.913 314.957,209.778 299.724,210.739 280.300 L 211.000 275.028 215.800 273.758 C 220.792 272.436,231.240 269.640,250.000 264.603 C 256.050 262.979,266.085 260.288,272.300 258.625 C 278.515 256.961,288.595 254.259,294.700 252.620 C 300.805 250.981,312.280 247.909,320.200 245.793 C 328.120 243.678,339.190 240.712,344.800 239.204 C 350.410 237.695,356.734 235.997,358.854 235.430 C 363.168 234.277,364.258 234.171,364.285 234.900 C 364.294 235.175,364.485 237.830,364.707 240.800 C 365.268 248.280,365.271 248.624,364.828 253.273 C 362.389 278.862,348.667 300.807,326.954 313.842 C 322.695 316.399,322.537 316.819,326.200 315.841 C 326.640 315.723,330.120 314.856,333.933 313.913 C 337.747 312.971,340.749 312.082,340.605 311.938 C 340.368 311.702,341.649 311.304,343.800 310.947 C 344.240 310.874,347.030 310.183,350.000 309.411 C 352.970 308.640,355.760 307.926,356.200 307.825 C 357.728 307.474,360.461 306.795,361.000 306.633 C 361.220 306.566,362.180 306.372,363.132 306.200 C 364.085 306.028,364.659 305.760,364.406 305.604 C 364.043 305.380,365.819 304.854,369.200 304.184 C 369.310 304.162,370.120 303.940,371.000 303.691 C 371.880 303.442,373.050 303.148,373.600 303.039 C 375.408 302.681,376.453 302.437,377.200 302.200 C 377.605 302.072,378.310 301.884,378.768 301.783 C 379.226 301.682,380.005 301.496,380.500 301.368 C 380.995 301.240,381.643 301.120,381.940 301.101 C 382.344 301.075,382.419 300.652,382.235 299.433 C 381.805 296.567,381.070 294.033,380.729 294.244 C 380.548 294.356,380.386 294.122,380.369 293.724 C 380.353 293.326,380.273 292.730,380.193 292.400 C 379.996 291.591,379.577 289.893,379.452 289.400 C 379.397 289.180,379.234 288.640,379.091 288.200 C 378.848 287.451,378.715 286.848,378.190 284.100 C 378.074 283.495,377.811 282.550,377.605 282.000 C 377.203 280.924,375.697 274.948,375.345 273.033 C 375.227 272.391,374.898 271.491,374.613 271.033 C 374.117 270.235,373.646 268.706,373.372 267.000 C 373.153 265.643,372.889 264.646,372.436 263.476 C 372.197 262.858,371.915 261.778,371.808 261.076 C 371.645 259.998,371.192 258.109,370.185 254.300 C 370.083 253.915,369.914 253.195,369.810 252.700 C 369.134 249.501,368.683 248.025,368.431 248.181 C 368.194 248.328,367.713 246.602,366.545 241.400 C 366.496 241.180,366.167 239.933,365.814 238.628 C 365.461 237.324,365.071 235.614,364.947 234.828 C 364.823 234.043,364.636 233.262,364.533 233.093 C 364.429 232.925,364.260 232.295,364.157 231.693 C 363.621 228.581,364.642 228.558,352.034 231.966 C 346.405 233.488,336.310 236.200,329.600 237.994 C 313.094 242.407,297.439 246.599,284.100 250.179 C 277.995 251.817,266.880 254.796,259.400 256.799 C 251.920 258.802,240.490 261.864,234.000 263.603 C 227.510 265.342,219.507 267.485,216.215 268.364 C 212.923 269.243,210.135 269.869,210.021 269.754 C 209.717 269.451,208.433 264.634,208.608 264.458 C 208.690 264.377,213.401 263.071,219.078 261.558 C 240.778 255.771,272.639 247.241,291.400 242.195 C 298.440 240.301,308.160 237.696,313.000 236.406 C 328.269 232.335,351.612 226.069,356.600 224.702 C 361.788 223.280,361.680 223.383,360.891 220.600 C 360.642 219.720,360.330 218.460,360.198 217.800 C 360.066 217.140,359.908 216.420,359.846 216.200 C 359.785 215.980,359.533 215.080,359.286 214.200 C 359.040 213.320,358.748 212.150,358.639 211.600 C 358.423 210.507,358.109 209.191,357.805 208.100 C 357.698 207.715,357.244 205.870,356.796 204.000 C 356.348 202.130,355.733 200.150,355.429 199.600 C 355.125 199.050,354.781 198.060,354.665 197.400 C 354.548 196.740,354.273 195.615,354.054 194.900 C 353.835 194.185,353.740 193.600,353.842 193.600 C 353.944 193.600,353.833 193.235,353.594 192.788 C 353.355 192.341,353.087 191.486,352.999 190.888 C 352.911 190.290,352.740 189.395,352.619 188.900 C 352.499 188.405,352.320 187.639,352.223 187.198 C 352.125 186.758,351.963 186.263,351.862 186.098 C 351.762 185.934,351.574 185.138,351.446 184.329 C 351.097 182.120,349.629 176.704,349.148 175.845 C 348.682 175.014,347.786 172.080,347.424 170.200 C 347.296 169.540,346.653 166.930,345.994 164.400 C 345.336 161.870,344.697 159.260,344.576 158.600 C 344.054 155.757,343.083 152.425,342.824 152.585 C 342.669 152.681,342.203 151.284,341.788 149.480 C 340.856 145.421,340.957 145.831,340.240 143.200 C 339.910 141.990,339.550 140.550,339.440 140.000 C 339.253 139.062,339.083 138.330,338.600 136.400 C 338.490 135.960,338.310 135.240,338.200 134.800 C 338.090 134.360,337.914 133.595,337.810 133.100 C 337.102 129.754,336.674 128.431,336.360 128.625 C 336.162 128.747,335.978 128.477,335.950 128.024 C 335.894 127.105,335.917 127.208,335.291 125.000 C 335.042 124.120,334.748 122.950,334.639 122.400 C 334.466 121.527,334.199 120.372,333.852 119.000 C 333.797 118.780,333.634 118.240,333.491 117.800 C 333.348 117.360,333.144 116.550,333.036 116.000 C 332.853 115.064,332.690 114.359,332.200 112.400 C 332.090 111.960,331.927 111.285,331.837 110.900 C 331.748 110.515,331.389 108.981,331.041 107.492 C 330.693 106.002,330.150 104.382,329.835 103.892 C 329.520 103.401,329.169 102.460,329.055 101.800 C 328.875 100.759,328.695 99.954,328.252 98.200 C 328.197 97.980,328.034 97.440,327.891 97.000 C 327.748 96.560,327.544 95.750,327.436 95.200 C 327.242 94.207,326.858 92.567,326.639 91.800 C 326.576 91.580,326.398 90.860,326.243 90.200 C 325.068 85.200,324.243 82.450,323.970 82.619 C 323.793 82.728,323.650 82.498,323.653 82.109 C 323.658 81.306,323.599 81.050,322.704 78.000 C 322.349 76.790,321.961 75.260,321.843 74.600 C 321.724 73.940,321.336 72.320,320.981 71.000 C 320.075 67.631,319.756 66.339,318.738 61.903 C 318.202 59.566,317.717 58.205,317.528 58.503 C 317.319 58.831,317.210 58.695,317.206 58.100 C 317.199 56.989,317.151 56.992,312.000 58.425 M213.642 143.893 C 222.773 164.244,245.519 175.003,269.000 170.077 C 302.235 163.105,333.576 175.820,352.121 203.800 C 355.566 208.998,360.308 218.800,359.377 218.800 C 359.111 218.800,349.456 221.349,334.400 225.395 C 328.350 227.020,318.270 229.723,312.000 231.401 C 305.730 233.079,296.915 235.446,292.412 236.661 C 287.908 237.876,280.258 239.923,275.412 241.210 C 259.831 245.347,235.783 251.793,217.056 256.851 C 211.367 258.388,206.673 259.590,206.625 259.523 C 206.577 259.455,205.857 258.140,205.026 256.600 C 194.281 236.687,173.012 227.521,149.544 232.690 C 112.537 240.840,75.974 221.998,60.578 186.844 C 59.576 184.556,58.901 182.540,59.078 182.364 C 59.255 182.187,64.530 180.680,70.800 179.013 C 84.786 175.295,111.838 168.056,142.600 159.798 C 156.603 156.040,174.894 151.139,192.000 146.564 C 198.050 144.946,204.890 143.091,207.200 142.442 C 212.680 140.902,212.257 140.807,213.642 143.893 " stroke="none" fill="#cc151d" fill-rule="evenodd"></path><path id="path1" d="M306.600 28.689 C 306.160 28.798,305.591 29.055,305.336 29.262 C 305.039 29.503,304.772 29.479,304.597 29.195 C 304.413 28.898,304.159 28.977,303.822 29.437 C 303.547 29.814,303.114 29.994,302.861 29.838 C 302.607 29.681,302.400 29.764,302.400 30.023 C 302.400 30.296,302.065 30.406,301.600 30.284 C 301.160 30.169,300.800 30.259,300.800 30.484 C 300.800 30.709,300.440 30.799,300.000 30.684 C 299.560 30.569,299.200 30.659,299.200 30.884 C 299.200 31.109,298.849 31.201,298.419 31.089 C 297.990 30.977,297.585 31.015,297.519 31.175 C 297.345 31.599,287.219 34.059,286.776 33.785 C 286.569 33.657,286.400 33.764,286.400 34.023 C 286.400 34.293,286.067 34.406,285.619 34.289 C 285.190 34.177,284.781 34.256,284.712 34.464 C 284.642 34.673,283.917 34.879,283.099 34.922 C 282.282 34.965,281.521 35.236,281.409 35.525 C 281.297 35.814,281.004 35.926,280.758 35.774 C 280.512 35.622,280.164 35.734,279.986 36.023 C 279.718 36.456,279.550 36.456,279.030 36.025 C 278.504 35.589,278.400 35.601,278.400 36.101 C 278.400 36.892,275.975 37.402,275.533 36.705 C 275.306 36.348,275.210 36.418,275.206 36.947 C 275.202 37.495,274.988 37.638,274.400 37.484 C 273.960 37.369,273.600 37.407,273.600 37.569 C 273.600 37.943,269.638 38.871,269.198 38.599 C 269.017 38.487,268.808 38.549,268.734 38.737 C 268.660 38.924,266.800 39.557,264.600 40.143 C 262.400 40.730,260.420 41.257,260.200 41.316 C 259.980 41.374,259.567 41.568,259.282 41.746 C 258.987 41.930,258.506 41.854,258.160 41.567 C 257.667 41.157,257.578 41.170,257.677 41.632 C 257.759 42.010,257.499 42.168,256.900 42.105 C 256.405 42.052,256.000 42.207,256.000 42.448 C 256.000 42.688,255.736 42.784,255.413 42.660 C 255.090 42.536,254.712 42.619,254.572 42.845 C 254.433 43.070,254.079 43.162,253.785 43.050 C 253.492 42.937,253.195 43.016,253.125 43.224 C 253.056 43.433,252.252 43.648,251.340 43.702 C 250.428 43.756,249.747 43.908,249.827 44.039 C 250.057 44.418,245.664 45.287,245.144 44.966 C 244.877 44.801,244.783 44.849,244.924 45.078 C 245.229 45.571,241.006 46.574,240.344 46.166 C 240.077 46.001,239.983 46.049,240.124 46.278 C 240.268 46.510,239.413 46.891,238.086 47.184 C 236.829 47.462,235.583 47.865,235.318 48.079 C 235.052 48.293,234.660 48.360,234.445 48.228 C 234.231 48.095,233.935 48.182,233.787 48.421 C 233.640 48.659,233.273 48.760,232.972 48.645 C 232.672 48.529,232.312 48.619,232.172 48.845 C 232.033 49.070,231.667 49.158,231.360 49.040 C 231.052 48.922,230.800 49.020,230.800 49.259 C 230.800 49.498,230.440 49.599,230.000 49.484 C 229.560 49.369,229.200 49.438,229.200 49.637 C 229.200 50.186,228.096 50.072,227.865 49.500 C 227.729 49.163,227.653 49.199,227.632 49.610 C 227.608 50.066,225.593 50.715,219.700 52.166 C 215.355 53.235,211.607 54.261,211.370 54.446 C 211.127 54.635,210.737 54.577,210.470 54.310 C 210.110 53.950,210.000 53.999,210.000 54.520 C 210.000 55.305,208.965 55.444,208.665 54.700 C 208.551 54.418,208.449 54.525,208.432 54.947 C 208.409 55.491,208.183 55.637,207.600 55.484 C 207.160 55.369,206.800 55.438,206.800 55.637 C 206.800 56.186,205.696 56.072,205.465 55.500 C 205.351 55.218,205.249 55.325,205.232 55.747 C 205.209 56.291,204.983 56.437,204.400 56.284 C 203.960 56.169,203.600 56.203,203.600 56.360 C 203.600 56.732,198.034 58.068,197.600 57.800 C 197.418 57.687,197.208 57.746,197.134 57.930 C 196.952 58.385,190.051 60.079,189.577 59.786 C 189.370 59.658,189.200 59.743,189.200 59.976 C 189.200 60.209,188.851 60.400,188.424 60.400 C 187.997 60.400,187.531 60.589,187.388 60.819 C 187.211 61.106,186.950 61.091,186.564 60.770 C 186.116 60.398,186.000 60.444,186.000 60.994 C 186.000 61.476,185.797 61.608,185.332 61.429 C 184.965 61.288,184.528 61.392,184.362 61.661 C 184.129 62.039,183.914 62.027,183.408 61.607 C 182.886 61.173,182.779 61.169,182.877 61.587 C 183.010 62.150,180.927 62.918,180.100 62.611 C 179.825 62.509,179.600 62.620,179.600 62.859 C 179.600 63.103,179.232 63.197,178.760 63.074 C 178.299 62.953,178.037 62.970,178.179 63.112 C 178.517 63.451,171.157 65.260,170.479 65.005 C 170.193 64.897,170.049 64.956,170.160 65.136 C 170.271 65.316,168.976 65.785,167.281 66.180 C 165.587 66.574,163.983 67.071,163.718 67.283 C 163.452 67.495,163.060 67.560,162.845 67.428 C 162.631 67.295,162.335 67.382,162.187 67.621 C 162.040 67.859,161.673 67.960,161.372 67.845 C 161.072 67.729,160.712 67.819,160.572 68.045 C 160.433 68.270,160.073 68.360,159.772 68.245 C 159.472 68.129,159.112 68.219,158.972 68.445 C 158.833 68.670,158.467 68.758,158.160 68.640 C 157.852 68.522,157.600 68.620,157.600 68.859 C 157.600 69.105,157.172 69.211,156.612 69.104 C 156.014 68.990,155.722 69.074,155.872 69.316 C 156.023 69.561,155.712 69.638,155.072 69.516 C 154.496 69.406,154.107 69.450,154.209 69.614 C 154.460 70.021,151.700 70.509,151.131 70.158 C 150.881 70.003,150.783 70.049,150.913 70.259 C 151.047 70.476,148.766 71.222,145.675 71.975 C 142.664 72.707,140.003 73.461,139.763 73.650 C 139.523 73.839,139.212 73.879,139.073 73.740 C 138.933 73.600,138.553 73.707,138.227 73.977 C 137.902 74.248,137.460 74.360,137.245 74.228 C 137.031 74.095,136.735 74.182,136.587 74.421 C 136.440 74.659,136.067 74.758,135.760 74.640 C 135.452 74.522,135.200 74.599,135.200 74.813 C 135.200 75.379,134.102 75.286,133.865 74.700 C 133.729 74.363,133.653 74.399,133.632 74.810 C 133.608 75.266,131.594 75.914,125.700 77.362 C 121.355 78.430,117.643 79.446,117.451 79.620 C 117.259 79.795,116.873 79.849,116.592 79.741 C 116.311 79.634,115.957 79.746,115.805 79.992 C 115.603 80.318,115.377 80.313,114.964 79.970 C 114.522 79.604,114.400 79.629,114.400 80.087 C 114.400 80.474,113.618 80.847,112.100 81.186 C 105.066 82.756,86.539 91.472,87.721 92.655 C 87.917 92.850,106.143 88.102,127.400 82.318 C 134.752 80.318,151.782 75.771,164.400 72.441 C 169.570 71.076,176.320 69.252,179.400 68.387 C 182.480 67.522,189.050 65.750,194.000 64.450 C 206.119 61.266,215.153 58.853,226.400 55.796 C 231.570 54.391,238.320 52.591,241.400 51.795 C 244.480 51.000,249.160 49.735,251.800 48.983 C 254.440 48.231,260.650 46.555,265.600 45.258 C 277.873 42.041,287.000 39.595,297.200 36.791 C 301.930 35.491,306.790 34.180,308.000 33.878 C 310.421 33.274,310.455 33.186,309.572 29.900 C 309.158 28.357,308.704 28.172,306.600 28.689 M307.600 39.280 C 306.170 39.739,300.410 41.327,294.800 42.810 C 275.032 48.035,268.916 49.669,260.400 52.000 C 255.670 53.295,248.290 55.286,244.000 56.425 C 239.710 57.564,230.980 59.889,224.600 61.592 C 218.220 63.294,208.770 65.806,203.600 67.172 C 198.430 68.539,191.410 70.444,188.000 71.406 C 184.590 72.368,179.190 73.806,176.000 74.601 C 172.810 75.397,168.348 76.585,166.083 77.240 C 163.819 77.896,157.159 79.707,151.283 81.264 C 145.408 82.821,135.920 85.334,130.200 86.848 C 124.480 88.363,118.210 90.059,116.266 90.618 C 114.323 91.177,108.293 92.798,102.866 94.222 C 93.056 96.796,81.124 99.991,78.346 100.788 C 77.477 101.037,76.473 101.754,75.852 102.567 L 74.813 103.929 79.958 102.596 C 82.788 101.863,86.340 100.895,87.852 100.445 C 89.363 99.995,95.370 98.364,101.200 96.820 C 107.030 95.276,117.110 92.594,123.600 90.859 C 130.090 89.124,138.910 86.769,143.200 85.626 C 147.490 84.483,153.340 82.908,156.200 82.127 C 159.060 81.345,165.720 79.576,171.000 78.195 C 176.280 76.814,182.490 75.139,184.800 74.472 C 187.110 73.805,192.600 72.333,197.000 71.200 C 201.400 70.067,206.440 68.712,208.200 68.188 C 209.960 67.664,215.900 66.057,221.400 64.616 C 226.900 63.175,234.010 61.292,237.200 60.430 C 243.537 58.718,251.520 56.580,267.200 52.397 C 291.432 45.932,296.145 44.667,302.200 43.008 C 305.720 42.043,309.365 41.054,310.300 40.811 C 311.323 40.545,312.000 40.136,312.000 39.785 C 312.000 39.463,312.225 39.187,312.500 39.172 C 313.164 39.135,311.570 38.458,310.800 38.451 C 310.470 38.447,309.030 38.821,307.600 39.280 M305.200 47.671 C 301.130 48.755,293.930 50.702,289.200 51.998 C 284.470 53.294,277.090 55.283,272.800 56.418 C 268.510 57.553,259.780 59.881,253.400 61.592 C 247.020 63.302,237.570 65.817,232.400 67.180 C 227.230 68.542,220.210 70.444,216.800 71.406 C 213.390 72.368,207.990 73.806,204.800 74.601 C 201.610 75.397,197.148 76.585,194.883 77.240 C 192.619 77.896,185.959 79.707,180.083 81.264 C 156.624 87.480,148.685 89.598,141.600 91.530 C 131.745 94.218,122.236 96.755,110.600 99.802 C 105.320 101.184,99.110 102.862,96.800 103.530 C 94.490 104.197,88.730 105.749,84.000 106.977 C 67.335 111.306,68.344 110.710,64.063 118.743 L 62.780 121.149 65.490 120.363 C 72.014 118.472,75.361 117.562,80.800 116.204 C 83.990 115.407,89.390 113.967,92.800 113.005 C 96.210 112.042,102.870 110.233,107.600 108.984 C 112.330 107.735,121.420 105.316,127.800 103.608 C 134.180 101.899,143.630 99.386,148.800 98.022 C 153.970 96.658,160.990 94.756,164.400 93.794 C 167.810 92.832,173.210 91.394,176.400 90.599 C 179.590 89.803,184.052 88.615,186.317 87.960 C 188.581 87.304,195.151 85.517,200.917 83.990 C 206.682 82.463,216.710 79.794,223.200 78.059 C 229.690 76.324,238.510 73.969,242.800 72.825 C 247.090 71.681,254.470 69.686,259.200 68.392 C 263.930 67.097,270.050 65.478,272.800 64.793 C 275.550 64.109,280.230 62.854,283.200 62.004 C 286.170 61.154,292.470 59.448,297.200 58.213 C 308.872 55.166,315.121 53.413,315.436 53.098 C 315.984 52.549,313.949 45.597,313.255 45.650 C 312.895 45.677,309.270 46.587,305.200 47.671 M209.600 94.397 C 204.870 95.669,197.130 97.731,192.400 98.981 C 187.670 100.230,181.218 101.972,178.062 102.852 C 174.906 103.732,168.336 105.500,163.462 106.781 C 154.317 109.185,142.269 112.413,131.800 115.265 C 128.500 116.164,121.570 118.027,116.400 119.404 C 98.905 124.066,93.016 125.645,87.200 127.230 C 84.010 128.100,77.260 129.893,72.200 131.215 C 67.140 132.537,61.710 133.996,60.132 134.458 L 57.265 135.297 56.629 138.112 C 55.822 141.688,55.497 141.573,61.699 139.912 C 64.615 139.131,70.150 137.650,74.000 136.621 C 77.850 135.592,83.700 134.016,87.000 133.118 C 90.300 132.220,97.950 130.166,104.000 128.553 C 110.050 126.940,119.950 124.289,126.000 122.664 C 132.050 121.038,140.510 118.771,144.800 117.627 C 149.090 116.484,154.940 114.908,157.800 114.127 C 160.660 113.345,167.320 111.576,172.600 110.195 C 177.880 108.814,184.090 107.140,186.400 106.474 C 188.710 105.809,193.480 104.523,197.000 103.618 C 200.520 102.712,206.055 101.224,209.301 100.312 L 215.202 98.653 216.834 96.148 C 217.731 94.771,218.721 93.432,219.033 93.173 C 221.051 91.498,219.760 91.666,209.600 94.397 M206.800 112.873 C 205.150 113.287,199.930 114.692,195.200 115.995 C 190.470 117.299,183.450 119.206,179.600 120.234 C 175.750 121.261,167.380 123.501,161.000 125.209 C 154.620 126.918,145.530 129.337,140.800 130.585 C 136.070 131.833,129.050 133.730,125.200 134.800 C 121.350 135.870,115.950 137.308,113.200 137.996 C 110.450 138.684,106.040 139.862,103.400 140.614 C 98.773 141.931,88.222 144.754,68.400 149.978 C 63.230 151.341,58.055 152.718,56.900 153.039 L 54.800 153.622 54.800 156.582 L 54.800 159.541 58.300 158.572 C 60.225 158.039,66.930 156.246,73.200 154.587 C 79.470 152.928,85.770 151.225,87.200 150.801 C 88.630 150.377,94.300 148.854,99.800 147.416 C 105.300 145.978,112.050 144.185,114.800 143.431 C 117.550 142.676,123.310 141.123,127.600 139.978 C 131.890 138.833,140.260 136.592,146.200 134.999 C 152.140 133.405,161.230 130.987,166.400 129.625 C 171.570 128.263,177.960 126.536,180.600 125.786 C 183.240 125.036,189.189 123.444,193.819 122.249 C 208.296 118.511,209.198 118.184,209.210 116.676 C 209.215 115.974,209.385 114.685,209.587 113.811 C 210.037 111.871,210.362 111.980,206.800 112.873 M353.400 243.994 C 339.610 247.775,307.542 256.398,294.600 259.806 C 290.200 260.965,282.820 262.933,278.200 264.181 C 273.580 265.428,264.400 267.893,257.800 269.658 C 251.200 271.424,241.570 274.010,236.400 275.404 C 231.230 276.799,223.490 278.870,219.200 280.005 C 214.910 281.141,211.277 282.190,211.127 282.335 C 210.879 282.575,209.994 288.079,210.170 288.289 C 210.260 288.396,223.158 285.075,226.800 284.007 C 228.230 283.588,234.260 281.951,240.200 280.370 C 246.140 278.788,255.860 276.193,261.800 274.602 C 267.740 273.010,276.110 270.773,280.400 269.631 C 284.690 268.488,292.790 266.317,298.400 264.806 C 307.978 262.226,324.960 257.670,338.600 254.021 C 341.900 253.138,349.100 251.224,354.600 249.769 C 366.236 246.689,365.349 247.195,364.990 243.844 C 364.644 240.609,365.803 240.594,353.400 243.994 M360.800 259.854 C 359.590 260.173,354.370 261.586,349.200 262.993 C 340.035 265.487,336.706 266.380,315.600 271.999 C 296.662 277.042,287.028 279.635,280.600 281.421 C 277.080 282.399,270.510 284.169,266.000 285.354 C 246.611 290.450,240.198 292.161,233.600 293.998 C 229.750 295.070,223.090 296.859,218.800 297.975 C 214.510 299.090,209.830 300.334,208.400 300.740 L 205.800 301.477 203.735 304.838 C 202.599 306.687,201.699 308.227,201.735 308.260 C 201.825 308.342,219.261 303.733,237.800 298.725 C 247.318 296.154,279.818 287.456,297.200 282.827 C 301.490 281.685,308.510 279.779,312.800 278.593 C 317.090 277.406,322.490 275.966,324.800 275.392 C 327.110 274.819,331.790 273.567,335.200 272.611 C 338.610 271.654,345.000 269.942,349.400 268.805 C 353.800 267.669,358.592 266.382,360.050 265.946 L 362.699 265.153 363.150 262.910 C 363.674 260.297,363.720 259.185,363.300 259.236 C 363.135 259.256,362.010 259.534,360.800 259.854 M354.200 280.193 C 352.440 280.682,347.490 282.021,343.200 283.167 C 338.910 284.314,333.060 285.891,330.200 286.672 C 327.340 287.452,320.950 289.153,316.000 290.451 C 311.050 291.748,305.380 293.275,303.400 293.844 C 301.420 294.412,295.120 296.118,289.400 297.634 C 283.680 299.151,273.690 301.813,267.200 303.551 C 260.710 305.289,251.890 307.642,247.600 308.779 C 243.310 309.916,235.930 311.905,231.200 313.200 C 226.470 314.495,219.090 316.483,214.800 317.618 C 210.510 318.753,201.780 321.081,195.400 322.792 C 189.020 324.502,179.570 327.017,174.400 328.380 C 169.230 329.742,162.210 331.644,158.800 332.606 C 155.390 333.568,149.990 335.006,146.800 335.803 C 143.610 336.599,138.570 337.944,135.600 338.792 C 132.630 339.640,126.960 341.166,123.000 342.183 C 119.040 343.201,113.640 344.647,111.000 345.398 C 108.360 346.148,105.454 346.952,104.542 347.185 L 102.884 347.608 103.663 350.650 C 104.092 352.323,104.344 353.790,104.224 353.910 C 104.103 354.030,104.345 354.366,104.761 354.658 C 105.551 355.211,108.089 354.628,125.400 349.918 C 128.700 349.020,136.350 346.964,142.400 345.349 C 148.450 343.734,158.710 340.993,165.200 339.258 C 171.690 337.524,180.510 335.169,184.800 334.025 C 189.090 332.881,196.470 330.891,201.200 329.603 C 205.930 328.314,213.670 326.232,218.400 324.976 C 223.130 323.720,231.860 321.392,237.800 319.803 C 243.740 318.214,252.830 315.796,258.000 314.431 C 263.170 313.066,269.560 311.335,272.200 310.585 C 274.840 309.834,280.240 308.392,284.200 307.379 C 288.160 306.366,293.252 305.004,295.517 304.352 C 299.376 303.241,305.959 301.481,331.400 294.761 C 354.946 288.542,352.690 289.603,355.803 283.290 C 358.008 278.818,358.151 279.095,354.200 280.193 M339.800 297.967 C 335.840 299.016,329.900 300.611,326.600 301.512 C 323.300 302.413,317.450 303.991,313.600 305.018 C 309.750 306.045,301.380 308.281,295.000 309.988 C 288.620 311.694,279.170 314.208,274.000 315.574 C 268.830 316.940,261.810 318.844,258.400 319.806 C 254.990 320.768,249.590 322.207,246.400 323.005 C 243.210 323.802,237.810 325.241,234.400 326.201 C 230.990 327.162,224.330 328.970,219.600 330.219 C 214.870 331.468,205.780 333.886,199.400 335.593 C 193.020 337.299,184.290 339.631,180.000 340.774 C 175.710 341.917,169.860 343.491,167.000 344.272 C 164.140 345.052,157.750 346.753,152.800 348.051 C 147.850 349.348,142.180 350.875,140.200 351.444 C 138.220 352.012,131.920 353.716,126.200 355.231 C 105.485 360.715,106.600 360.362,106.600 361.440 C 106.600 362.652,107.231 362.666,110.957 361.542 C 112.521 361.070,118.390 359.471,124.000 357.989 C 136.892 354.581,146.551 352.000,154.200 349.917 C 161.517 347.925,177.888 343.549,193.200 339.492 C 199.470 337.831,206.220 336.008,208.200 335.440 C 210.180 334.872,215.850 333.347,220.800 332.052 C 231.616 329.222,240.612 326.818,253.200 323.394 C 258.370 321.988,266.110 319.906,270.400 318.769 C 274.690 317.631,283.420 315.304,289.800 313.597 C 296.180 311.890,304.550 309.651,308.400 308.622 C 312.250 307.593,318.100 306.022,321.400 305.132 C 324.700 304.241,331.320 302.475,336.112 301.208 C 341.376 299.815,345.150 298.607,345.649 298.156 C 346.362 297.510,347.441 295.944,347.114 296.030 C 347.051 296.046,343.760 296.918,339.800 297.967 M334.600 306.856 C 333.280 307.282,327.520 308.863,321.800 310.369 C 303.827 315.099,296.008 317.187,289.200 319.074 C 285.570 320.080,278.640 321.939,273.800 323.206 C 261.212 326.501,246.031 330.563,238.600 332.624 C 235.080 333.600,228.510 335.368,224.000 336.552 C 214.365 339.082,204.171 341.804,195.800 344.082 C 187.427 346.360,170.098 350.983,158.000 354.165 C 152.390 355.641,146.000 357.369,143.800 358.006 C 141.600 358.643,135.660 360.256,130.600 361.590 C 105.906 368.098,108.101 367.118,109.188 371.157 C 109.731 373.171,108.269 373.334,121.800 369.753 C 127.080 368.356,136.170 365.959,142.000 364.427 C 147.830 362.895,153.230 361.422,154.000 361.154 C 155.308 360.698,162.191 358.862,188.400 351.976 C 194.230 350.444,199.810 348.926,200.800 348.601 C 201.790 348.277,207.730 346.662,214.000 345.012 C 237.874 338.729,243.909 337.123,247.400 336.127 C 251.158 335.054,266.466 330.968,283.200 326.571 C 288.590 325.155,294.800 323.469,297.000 322.826 C 299.200 322.183,304.600 320.735,309.000 319.609 C 321.457 316.419,322.748 315.988,326.800 313.665 C 331.265 311.105,338.707 305.622,337.149 306.040 C 337.067 306.062,335.920 306.429,334.600 306.856 " stroke="none" fill="#424141" fill-rule="evenodd"></path><path id="path2" d="M309.566 33.767 C 309.459 33.874,304.338 35.302,298.186 36.941 C 292.034 38.579,283.850 40.759,280.000 41.785 C 276.150 42.810,268.410 44.887,262.800 46.399 C 257.190 47.912,246.120 50.883,238.200 53.003 C 230.280 55.122,219.210 58.088,213.600 59.593 C 207.990 61.098,198.000 63.774,191.400 65.540 C 184.800 67.306,175.620 69.772,171.000 71.019 C 166.380 72.266,159.180 74.176,155.000 75.263 C 150.820 76.350,146.208 77.591,144.751 78.022 C 143.294 78.452,137.084 80.132,130.951 81.755 C 81.391 94.873,85.257 93.618,80.390 98.171 C 77.723 100.665,77.514 100.656,85.811 98.413 C 89.765 97.344,98.400 95.024,105.000 93.259 C 111.600 91.493,120.780 89.029,125.400 87.783 C 133.937 85.481,144.080 82.772,163.275 77.671 C 169.147 76.110,177.247 73.939,181.275 72.845 C 185.304 71.752,194.090 69.391,200.800 67.600 C 207.510 65.809,216.330 63.438,220.400 62.332 C 224.470 61.226,231.760 59.279,236.600 58.005 C 244.650 55.887,251.622 54.016,268.200 49.526 C 271.500 48.632,278.790 46.686,284.400 45.201 C 290.010 43.717,298.338 41.489,302.907 40.251 C 307.477 39.013,311.485 38.000,311.815 38.000 C 312.466 38.000,312.318 36.711,311.448 34.805 C 311.025 33.878,310.013 33.320,309.566 33.767 M303.600 43.019 C 288.742 46.941,274.745 50.689,267.800 52.606 C 264.280 53.577,258.340 55.168,254.600 56.142 C 250.860 57.115,244.020 58.934,239.400 60.183 C 234.780 61.432,226.050 63.779,220.000 65.398 C 213.950 67.018,202.520 70.079,194.600 72.201 C 186.680 74.323,175.160 77.409,169.000 79.057 C 162.840 80.706,153.210 83.289,147.600 84.797 C 138.327 87.289,124.881 90.894,106.600 95.789 C 102.860 96.790,94.355 99.052,87.699 100.815 C 72.344 104.883,74.182 103.999,70.039 109.310 C 68.941 110.719,67.347 111.073,93.000 104.206 C 102.447 101.677,118.784 97.293,134.000 93.203 C 139.610 91.696,149.600 89.015,156.200 87.247 C 162.800 85.479,171.260 83.212,175.000 82.210 C 178.740 81.208,186.120 79.239,191.400 77.835 C 196.680 76.431,204.780 74.263,209.400 73.017 C 214.020 71.771,223.200 69.309,229.800 67.546 C 236.400 65.782,246.390 63.102,252.000 61.589 C 266.031 57.804,278.863 54.367,290.000 51.409 C 306.442 47.043,313.796 45.058,313.948 44.947 C 314.029 44.887,313.849 43.870,313.548 42.688 L 313.000 40.538 303.600 43.019 M315.400 53.654 C 314.960 53.842,310.550 55.065,305.600 56.370 C 295.833 58.946,285.518 61.701,269.600 65.984 C 263.990 67.494,253.910 70.198,247.200 71.994 C 240.490 73.790,230.410 76.495,224.800 78.006 C 219.190 79.517,211.180 81.663,207.000 82.775 C 202.820 83.887,196.340 85.616,192.600 86.616 C 168.289 93.117,160.674 95.156,151.600 97.596 C 141.431 100.331,123.505 105.139,110.600 108.593 C 106.860 109.594,99.660 111.509,94.600 112.849 C 89.540 114.188,82.970 115.964,80.000 116.795 C 77.030 117.626,71.918 118.990,68.640 119.827 L 62.679 121.349 61.197 124.574 C 59.422 128.439,57.331 134.264,57.617 134.550 C 57.729 134.663,60.787 133.953,64.411 132.973 C 68.035 131.992,75.770 129.926,81.600 128.381 C 87.430 126.836,95.080 124.783,98.600 123.819 C 102.120 122.855,110.490 120.598,117.200 118.803 C 123.910 117.008,133.990 114.302,139.600 112.789 C 153.522 109.034,166.392 105.586,177.600 102.609 C 196.891 97.484,202.827 95.895,211.600 93.503 L 220.600 91.049 223.880 87.969 C 231.761 80.567,235.824 78.699,255.501 73.432 C 268.491 69.954,283.810 65.851,301.000 61.243 C 307.600 59.474,313.900 57.803,315.000 57.530 C 316.100 57.257,317.036 57.020,317.081 57.003 C 317.125 56.986,316.945 56.149,316.681 55.142 C 316.258 53.531,316.104 53.352,315.400 53.654 M206.000 101.587 C 201.270 102.850,193.890 104.821,189.600 105.966 C 174.977 109.868,151.010 116.305,128.600 122.348 C 122.880 123.891,114.690 126.089,110.400 127.232 C 106.110 128.376,97.740 130.615,91.800 132.207 C 85.860 133.799,76.770 136.222,71.600 137.591 C 54.288 142.175,55.873 141.621,55.544 143.209 C 55.152 145.095,54.446 152.958,54.648 153.172 C 54.737 153.266,59.983 151.947,66.305 150.241 C 98.010 141.682,110.230 138.400,126.000 134.206 C 145.336 129.063,162.879 124.358,181.200 119.400 C 186.370 118.002,194.830 115.743,200.000 114.382 C 210.931 111.503,209.774 112.177,211.228 107.848 C 211.864 105.956,212.940 103.308,213.618 101.964 C 214.297 100.619,214.796 99.467,214.726 99.404 C 214.657 99.341,210.730 100.323,206.000 101.587 M201.200 120.594 C 194.900 122.321,175.048 127.655,158.000 132.202 C 146.597 135.243,133.640 138.715,120.000 142.385 C 114.390 143.894,104.400 146.574,97.800 148.340 C 91.200 150.106,82.110 152.550,77.600 153.770 C 73.090 154.990,66.095 156.846,62.056 157.894 L 54.711 159.800 54.890 162.901 C 54.988 164.606,55.155 166.088,55.262 166.195 C 55.369 166.302,59.224 165.381,63.828 164.149 C 68.433 162.917,77.240 160.558,83.400 158.908 C 89.560 157.257,98.830 154.776,104.000 153.395 C 120.825 148.899,131.612 146.010,142.000 143.215 C 147.610 141.706,157.600 139.025,164.200 137.258 C 170.800 135.491,181.600 132.599,188.200 130.831 C 194.800 129.063,202.090 127.115,204.400 126.501 L 208.600 125.386 208.716 122.093 C 208.855 118.150,209.582 118.295,201.200 120.594 M199.600 133.379 C 194.430 134.767,183.990 137.565,176.400 139.597 C 162.946 143.197,153.113 145.832,129.400 152.189 C 98.422 160.495,75.399 166.651,64.104 169.650 L 56.008 171.800 56.004 173.250 C 55.998 175.375,56.435 177.200,56.950 177.200 C 57.373 177.200,62.256 175.908,87.200 169.197 C 92.810 167.688,102.800 165.007,109.400 163.239 C 116.000 161.471,124.820 159.107,129.000 157.985 C 133.180 156.863,142.360 154.407,149.400 152.528 C 169.169 147.249,181.888 143.848,190.200 141.618 C 194.380 140.497,200.590 138.834,204.000 137.924 C 207.410 137.014,210.251 136.233,210.312 136.189 C 210.508 136.049,209.427 130.799,209.209 130.827 C 209.094 130.842,204.770 131.990,199.600 133.379 M203.400 143.611 C 198.780 144.888,189.510 147.400,182.800 149.194 C 156.712 156.169,147.902 158.531,140.000 160.669 C 135.490 161.889,129.100 163.594,125.800 164.459 C 122.500 165.324,115.210 167.268,109.600 168.781 C 103.990 170.293,93.910 172.999,87.200 174.794 C 73.055 178.577,60.492 181.957,59.533 182.238 C 58.955 182.407,59.105 182.983,60.648 186.509 C 71.494 211.310,92.051 227.924,118.533 233.294 C 125.625 234.732,140.203 234.617,147.200 233.067 C 155.916 231.137,159.398 230.705,164.400 230.932 C 181.740 231.721,196.649 241.115,205.232 256.659 L 206.811 259.518 208.705 258.939 C 209.747 258.620,215.314 257.116,221.075 255.597 C 226.837 254.077,234.847 251.937,238.875 250.841 C 242.904 249.745,251.690 247.382,258.400 245.590 C 265.110 243.799,275.190 241.098,280.800 239.589 C 297.529 235.090,307.286 232.480,316.800 229.961 C 321.750 228.650,329.400 226.604,333.800 225.415 C 338.200 224.225,345.670 222.223,350.400 220.966 C 355.130 219.710,359.127 218.572,359.281 218.439 C 359.770 218.019,354.223 207.174,351.350 202.930 C 333.966 177.258,303.187 163.974,273.600 169.374 C 262.637 171.374,260.990 171.597,257.200 171.591 C 238.573 171.559,221.747 161.006,213.693 144.304 C 212.872 142.601,212.110 141.226,212.000 141.249 C 211.890 141.272,208.020 142.335,203.400 143.611 M358.000 224.458 C 355.508 225.194,348.752 227.013,320.600 234.528 C 313.560 236.408,304.380 238.863,300.200 239.985 C 296.020 241.107,287.200 243.471,280.600 245.239 C 274.000 247.007,264.010 249.688,258.400 251.196 C 252.790 252.705,242.800 255.386,236.200 257.153 C 229.600 258.920,220.789 261.280,216.620 262.396 C 207.702 264.785,208.612 264.217,209.237 267.009 C 209.884 269.902,209.837 269.891,215.462 268.403 C 221.023 266.931,238.364 262.285,252.800 258.399 C 261.880 255.955,268.027 254.308,293.800 247.416 C 303.181 244.907,325.547 238.915,339.000 235.306 C 345.160 233.654,353.070 231.543,356.579 230.615 C 363.535 228.776,363.520 228.787,362.773 226.070 C 362.014 223.308,361.959 223.289,358.000 224.458 M361.600 234.852 C 360.830 235.061,354.800 236.678,348.200 238.446 C 341.600 240.214,331.610 242.894,326.000 244.402 C 299.557 251.510,277.653 257.370,266.000 260.454 C 261.050 261.764,253.760 263.716,249.800 264.792 C 241.358 267.086,221.456 272.419,216.000 273.849 C 213.910 274.397,211.885 274.937,211.500 275.049 C 210.906 275.223,210.800 275.757,210.800 278.584 L 210.800 281.913 215.100 280.807 C 219.479 279.681,230.325 276.773,247.200 272.199 C 252.370 270.798,258.400 269.179,260.600 268.601 C 262.800 268.024,269.190 266.318,274.800 264.810 C 280.410 263.303,290.490 260.600,297.200 258.805 C 303.910 257.009,313.990 254.305,319.600 252.795 C 332.766 249.253,343.104 246.492,354.800 243.397 C 365.321 240.612,364.651 241.072,364.209 236.942 C 363.919 234.242,363.901 234.228,361.600 234.852 M359.000 248.842 C 355.920 249.688,348.900 251.566,343.400 253.015 C 337.900 254.464,331.600 256.164,329.400 256.793 C 327.200 257.421,322.520 258.683,319.000 259.597 C 315.480 260.511,308.370 262.400,303.200 263.795 C 298.030 265.190,288.310 267.801,281.600 269.596 C 265.838 273.813,251.597 277.642,238.600 281.155 C 232.880 282.702,225.090 284.781,221.288 285.776 C 209.328 288.906,210.082 288.600,209.587 290.526 C 208.554 294.546,207.893 296.620,206.999 298.640 C 205.829 301.286,205.179 301.292,215.200 298.568 C 219.710 297.342,227.360 295.291,232.200 294.011 C 237.040 292.732,244.780 290.664,249.400 289.418 C 254.020 288.171,263.200 285.707,269.800 283.941 C 276.400 282.175,285.670 279.679,290.400 278.393 C 299.186 276.005,311.663 272.661,328.400 268.207 C 357.426 260.483,363.754 258.780,363.878 258.656 C 364.205 258.328,364.833 251.537,364.722 249.520 L 364.600 247.304 359.000 248.842 M361.800 265.829 C 361.423 265.942,346.873 269.841,321.400 276.656 C 315.240 278.304,306.330 280.709,301.600 282.000 C 296.870 283.291,290.120 285.092,286.600 286.002 C 283.080 286.913,278.040 288.263,275.400 289.002 C 272.760 289.742,266.730 291.372,262.000 292.626 C 257.270 293.880,248.540 296.206,242.600 297.796 C 236.660 299.385,227.930 301.716,223.200 302.976 C 218.470 304.236,211.529 306.107,207.776 307.133 L 200.953 309.000 198.329 311.915 C 195.166 315.429,191.245 318.643,187.204 321.033 C 181.461 324.430,180.982 324.580,147.200 333.606 C 140.490 335.399,130.770 338.008,125.600 339.404 C 120.430 340.800,113.320 342.694,109.800 343.614 C 102.354 345.560,101.999 345.710,102.280 346.785 C 102.435 347.376,102.657 347.492,103.144 347.236 C 103.505 347.047,108.300 345.704,113.800 344.252 C 124.126 341.527,128.952 340.239,149.400 334.754 C 156.000 332.984,166.440 330.186,172.600 328.537 C 178.760 326.888,188.030 324.394,193.200 322.994 C 198.370 321.595,206.470 319.424,211.200 318.171 C 215.930 316.917,224.660 314.589,230.600 312.997 C 236.540 311.405,245.270 309.076,250.000 307.822 C 254.730 306.567,262.470 304.484,267.200 303.194 C 271.930 301.903,278.860 300.038,282.600 299.049 C 294.447 295.916,322.736 288.335,338.000 284.203 C 343.170 282.804,349.650 281.078,352.400 280.368 C 358.461 278.805,358.027 279.131,359.710 274.879 C 361.966 269.176,362.809 265.528,361.800 265.829 M349.600 290.211 C 348.610 290.501,344.290 291.673,340.000 292.816 C 335.710 293.959,326.890 296.314,320.400 298.049 C 313.910 299.783,304.280 302.354,299.000 303.760 C 293.720 305.167,285.620 307.337,281.000 308.583 C 276.380 309.829,267.200 312.291,260.600 314.054 C 254.000 315.818,244.010 318.498,238.400 320.011 C 222.593 324.275,204.380 329.147,183.200 334.777 C 178.910 335.918,171.170 337.998,166.000 339.399 C 156.718 341.915,152.142 343.141,129.400 349.204 C 100.804 356.828,104.549 355.447,105.153 358.146 L 105.634 360.296 110.117 359.122 C 112.583 358.476,120.990 356.236,128.800 354.144 C 136.610 352.052,148.040 348.991,154.200 347.343 C 160.360 345.694,169.990 343.108,175.600 341.597 C 181.210 340.086,188.950 338.010,192.800 336.983 C 196.650 335.956,205.110 333.695,211.600 331.958 C 218.090 330.221,228.114 327.547,233.875 326.017 C 239.637 324.486,247.647 322.339,251.675 321.245 C 255.704 320.152,264.490 317.790,271.200 315.998 C 277.910 314.206,287.990 311.502,293.600 309.989 C 308.387 306.000,320.866 302.659,331.800 299.761 C 349.881 294.968,348.845 295.462,351.648 290.300 C 352.083 289.500,352.034 289.498,349.600 290.211 M339.400 300.660 C 336.760 301.402,330.910 302.978,326.400 304.161 C 321.890 305.344,314.420 307.333,309.800 308.581 C 305.180 309.828,296.000 312.294,289.400 314.060 C 282.800 315.826,272.810 318.506,267.200 320.015 C 250.563 324.491,239.179 327.540,229.200 330.194 C 224.030 331.569,213.590 334.360,206.000 336.398 C 179.946 343.392,170.181 346.006,159.725 348.784 C 153.963 350.314,145.953 352.461,141.925 353.555 C 125.498 358.014,110.476 362.018,108.485 362.467 C 107.090 362.782,106.435 363.114,106.561 363.444 C 106.667 363.718,106.871 364.574,107.016 365.344 C 107.449 367.653,105.232 368.060,132.800 360.601 C 143.866 357.607,161.430 352.890,172.400 349.967 C 183.685 346.959,202.418 341.952,209.600 340.024 C 213.010 339.109,221.200 336.915,227.800 335.150 C 234.400 333.384,244.390 330.702,250.000 329.189 C 263.496 325.549,276.490 322.067,288.000 319.006 C 293.170 317.631,303.610 314.840,311.200 312.804 C 318.790 310.768,327.928 308.326,331.507 307.379 C 338.464 305.537,339.135 305.183,342.775 301.441 C 345.072 299.080,345.045 299.074,339.400 300.660 M318.800 317.400 C 317.810 317.687,317.360 317.925,317.800 317.930 C 318.240 317.935,319.320 317.701,320.200 317.411 C 322.271 316.729,321.149 316.720,318.800 317.400 M315.600 318.400 C 315.600 318.620,315.870 318.800,316.200 318.800 C 316.530 318.800,316.800 318.620,316.800 318.400 C 316.800 318.180,316.530 318.000,316.200 318.000 C 315.870 318.000,315.600 318.180,315.600 318.400 M314.000 318.800 C 314.000 319.020,314.270 319.200,314.600 319.200 C 314.930 319.200,315.200 319.020,315.200 318.800 C 315.200 318.580,314.930 318.400,314.600 318.400 C 314.270 318.400,314.000 318.580,314.000 318.800 M306.000 321.000 C 305.010 321.287,304.560 321.525,305.000 321.530 C 305.440 321.535,306.520 321.301,307.400 321.011 C 309.471 320.329,308.349 320.320,306.000 321.000 M300.400 322.431 C 298.970 322.846,298.443 323.096,299.229 322.988 C 300.887 322.759,304.489 321.680,303.600 321.678 C 303.270 321.678,301.830 322.017,300.400 322.431 M294.100 323.914 C 292.725 324.258,291.600 324.688,291.600 324.870 C 291.600 325.311,292.254 325.287,293.105 324.814 C 293.487 324.602,294.700 324.171,295.800 323.856 C 298.483 323.088,297.237 323.131,294.100 323.914 M290.000 325.224 C 290.000 325.457,289.827 325.540,289.616 325.410 C 289.405 325.280,288.910 325.358,288.516 325.585 C 288.122 325.812,283.035 327.180,277.211 328.624 C 271.386 330.069,266.420 331.418,266.174 331.622 C 265.928 331.826,265.612 331.879,265.473 331.740 C 265.333 331.600,264.990 331.666,264.710 331.886 C 264.429 332.106,261.448 332.964,258.084 333.794 C 254.721 334.623,252.043 335.376,252.134 335.467 C 252.353 335.686,268.464 331.638,268.991 331.232 C 269.216 331.058,274.305 329.698,280.300 328.210 C 289.702 325.875,292.950 324.800,290.600 324.800 C 290.270 324.800,290.000 324.991,290.000 325.224 M248.600 336.211 C 247.720 336.501,247.360 336.739,247.800 336.739 C 248.240 336.739,249.320 336.501,250.200 336.211 C 251.080 335.921,251.440 335.684,251.000 335.684 C 250.560 335.684,249.480 335.921,248.600 336.211 M243.300 337.482 C 242.805 337.578,242.400 337.844,242.400 338.074 C 242.400 338.314,242.786 338.390,243.300 338.252 C 243.795 338.119,244.425 338.008,244.700 338.005 C 244.975 338.002,245.200 337.820,245.200 337.600 C 245.200 337.193,244.899 337.174,243.300 337.482 M235.200 340.000 C 234.396 340.257,234.357 340.323,235.000 340.332 C 235.440 340.338,236.160 340.189,236.600 340.000 C 237.619 339.562,236.568 339.562,235.200 340.000 M229.600 341.400 C 228.610 341.687,228.160 341.925,228.600 341.930 C 229.040 341.935,230.120 341.701,231.000 341.411 C 233.071 340.729,231.949 340.720,229.600 341.400 M224.000 342.831 C 222.570 343.246,222.043 343.496,222.829 343.388 C 224.487 343.159,228.089 342.080,227.200 342.078 C 226.870 342.078,225.430 342.417,224.000 342.831 M220.000 344.000 C 220.000 344.220,220.270 344.400,220.600 344.400 C 220.930 344.400,221.200 344.220,221.200 344.000 C 221.200 343.780,220.930 343.600,220.600 343.600 C 220.270 343.600,220.000 343.780,220.000 344.000 M218.400 344.443 C 218.400 344.686,218.136 344.784,217.813 344.660 C 217.490 344.536,217.119 344.607,216.989 344.817 C 216.721 345.252,217.379 345.302,218.700 344.948 C 219.710 344.677,219.924 344.000,219.000 344.000 C 218.670 344.000,218.400 344.199,218.400 344.443 M211.200 346.431 C 209.770 346.846,209.243 347.096,210.029 346.988 C 211.687 346.759,215.289 345.680,214.400 345.678 C 214.070 345.678,212.630 346.017,211.200 346.431 M201.800 348.696 C 195.854 350.205,195.719 350.252,196.134 350.667 C 196.281 350.814,196.806 350.729,197.301 350.478 C 197.795 350.227,200.449 349.463,203.197 348.780 C 207.855 347.623,209.328 347.147,207.967 347.238 C 207.655 347.259,204.880 347.915,201.800 348.696 M194.596 350.807 C 194.458 351.030,194.184 351.114,193.989 350.993 C 193.793 350.872,193.310 350.958,192.916 351.185 C 192.522 351.412,187.430 352.779,181.600 354.224 C 175.770 355.668,170.843 357.005,170.651 357.194 C 170.459 357.383,170.054 357.442,169.751 357.326 C 169.448 357.210,169.200 357.328,169.200 357.589 C 169.200 358.140,171.102 357.831,173.000 356.973 C 173.660 356.674,179.015 355.231,184.900 353.765 C 190.785 352.299,195.600 350.943,195.600 350.750 C 195.600 350.269,194.904 350.308,194.596 350.807 M165.001 358.707 C 163.682 359.052,162.782 359.390,163.001 359.458 C 163.221 359.525,164.660 359.241,166.200 358.826 C 167.740 358.412,168.640 358.074,168.200 358.076 C 167.760 358.078,166.321 358.362,165.001 358.707 M160.200 360.000 C 159.181 360.438,160.232 360.438,161.600 360.000 C 162.404 359.743,162.443 359.677,161.800 359.668 C 161.360 359.662,160.640 359.811,160.200 360.000 M153.200 361.800 C 152.210 362.087,151.760 362.325,152.200 362.330 C 152.640 362.335,153.720 362.101,154.600 361.811 C 156.671 361.129,155.549 361.120,153.200 361.800 M150.000 362.800 C 150.000 363.020,150.270 363.200,150.600 363.200 C 150.930 363.200,151.200 363.020,151.200 362.800 C 151.200 362.580,150.930 362.400,150.600 362.400 C 150.270 362.400,150.000 362.580,150.000 362.800 M148.211 363.183 C 148.081 363.393,147.710 363.464,147.387 363.340 C 147.064 363.216,146.800 363.335,146.800 363.604 C 146.800 363.916,147.126 364.006,147.700 363.852 C 148.195 363.719,148.825 363.608,149.100 363.605 C 149.375 363.602,149.600 363.420,149.600 363.200 C 149.600 362.690,148.524 362.676,148.211 363.183 M140.400 365.400 C 139.410 365.687,138.960 365.925,139.400 365.930 C 139.840 365.935,140.920 365.701,141.800 365.411 C 143.871 364.729,142.749 364.720,140.400 365.400 M134.800 366.831 C 133.370 367.246,132.843 367.496,133.629 367.388 C 135.287 367.159,138.889 366.080,138.000 366.078 C 137.670 366.078,136.230 366.417,134.800 366.831 M128.500 368.314 C 127.125 368.658,126.000 369.088,126.000 369.270 C 126.000 369.711,126.654 369.687,127.505 369.214 C 127.887 369.002,129.100 368.571,130.200 368.256 C 132.883 367.488,131.637 367.531,128.500 368.314 M124.400 369.587 C 124.400 369.801,124.148 369.878,123.840 369.760 C 123.533 369.642,123.162 369.738,123.017 369.973 C 122.872 370.208,122.373 370.400,121.910 370.400 C 121.446 370.400,121.177 370.510,121.312 370.645 C 121.659 370.992,125.600 369.995,125.600 369.560 C 125.600 369.362,125.330 369.200,125.000 369.200 C 124.670 369.200,124.400 369.374,124.400 369.587 M114.800 372.200 C 112.050 372.928,110.036 373.541,110.323 373.562 C 110.925 373.606,120.507 371.226,120.764 370.970 C 121.120 370.613,119.632 370.920,114.800 372.200 " stroke="none" fill="#fbfbfb" fill-rule="evenodd"></path><path id="path3" d="M79.775 98.500 L 78.600 99.800 79.900 98.625 C 81.112 97.530,81.384 97.200,81.075 97.200 C 81.006 97.200,80.421 97.785,79.775 98.500 M208.240 118.706 C 208.482 118.868,208.783 119.270,208.908 119.600 C 209.061 120.001,209.147 119.901,209.168 119.300 C 209.190 118.695,208.970 118.402,208.500 118.406 C 208.068 118.410,207.969 118.525,208.240 118.706 M54.501 150.600 C 54.505 151.480,54.587 151.793,54.683 151.295 C 54.779 150.798,54.775 150.078,54.675 149.695 C 54.575 149.313,54.496 149.720,54.501 150.600 M222.783 157.300 C 224.441 159.066,224.800 159.384,224.800 159.083 C 224.800 159.019,223.945 158.164,222.900 157.183 L 221.000 155.400 222.783 157.300 M54.514 161.400 C 54.517 162.500,54.595 162.903,54.687 162.295 C 54.779 161.686,54.777 160.786,54.682 160.295 C 54.587 159.803,54.511 160.300,54.514 161.400 M281.105 168.283 C 281.602 168.379,282.322 168.375,282.705 168.275 C 283.087 168.175,282.680 168.096,281.800 168.101 C 280.920 168.105,280.607 168.187,281.105 168.283 M291.105 168.283 C 291.602 168.379,292.322 168.375,292.705 168.275 C 293.087 168.175,292.680 168.096,291.800 168.101 C 290.920 168.105,290.607 168.187,291.105 168.283 M160.515 231.096 C 161.788 231.176,163.768 231.175,164.915 231.094 C 166.062 231.014,165.020 230.949,162.600 230.950 C 160.180 230.951,159.242 231.016,160.515 231.096 M130.300 234.695 C 131.455 234.776,133.345 234.776,134.500 234.695 C 135.655 234.614,134.710 234.548,132.400 234.548 C 130.090 234.548,129.145 234.614,130.300 234.695 M364.324 239.800 C 364.234 240.570,364.304 241.200,364.480 241.200 C 364.656 241.200,364.800 240.570,364.800 239.800 C 364.800 239.030,364.730 238.400,364.644 238.400 C 364.558 238.400,364.414 239.030,364.324 239.800 M195.200 243.725 C 195.200 243.794,195.785 244.379,196.500 245.025 L 197.800 246.200 196.625 244.900 C 195.530 243.688,195.200 243.416,195.200 243.725 M364.920 249.200 C 364.920 250.410,364.995 250.905,365.087 250.300 C 365.178 249.695,365.178 248.705,365.087 248.100 C 364.995 247.495,364.920 247.990,364.920 249.200 M364.493 254.800 C 364.493 255.570,364.575 255.885,364.676 255.500 C 364.776 255.115,364.776 254.485,364.676 254.100 C 364.575 253.715,364.493 254.030,364.493 254.800 M310.800 319.208 C 310.250 319.397,308.307 319.945,306.482 320.425 C 304.657 320.905,303.239 321.373,303.331 321.464 C 303.570 321.704,312.124 319.558,312.580 319.144 C 313.058 318.711,312.148 318.743,310.800 319.208 M287.800 325.408 C 287.580 325.487,285.907 325.945,284.082 326.425 C 282.257 326.905,280.839 327.373,280.932 327.465 C 281.171 327.704,288.124 325.959,288.580 325.545 C 288.969 325.192,288.584 325.124,287.800 325.408 M260.491 332.690 C 258.452 333.254,256.854 333.787,256.941 333.874 C 257.174 334.107,264.134 332.349,264.580 331.945 C 265.127 331.449,264.683 331.530,260.491 332.690 M239.200 338.408 C 238.650 338.597,236.707 339.145,234.882 339.625 C 233.057 340.105,231.637 340.570,231.726 340.659 C 231.995 340.928,240.800 338.653,240.800 338.315 C 240.800 337.937,240.518 337.954,239.200 338.408 M212.087 345.684 C 209.605 346.357,207.647 346.981,207.736 347.070 C 207.972 347.305,216.530 345.152,216.980 344.744 C 217.536 344.240,217.112 344.322,212.087 345.684 M188.891 351.890 C 186.852 352.454,185.254 352.987,185.341 353.074 C 185.574 353.307,192.534 351.549,192.980 351.145 C 193.527 350.649,193.083 350.730,188.891 351.890 M164.891 358.290 C 162.852 358.854,161.259 359.392,161.351 359.485 C 161.617 359.751,169.190 357.835,169.195 357.500 C 169.202 357.100,169.162 357.108,164.891 358.290 M145.200 363.608 C 144.650 363.797,142.707 364.345,140.882 364.825 C 139.057 365.305,137.637 365.770,137.726 365.859 C 137.995 366.128,146.800 363.853,146.800 363.515 C 146.800 363.137,146.518 363.154,145.200 363.608 M118.087 370.884 C 115.605 371.557,113.647 372.181,113.736 372.270 C 113.972 372.505,122.530 370.352,122.980 369.944 C 123.536 369.440,123.112 369.522,118.087 370.884 " stroke="none" fill="#949498" fill-rule="evenodd"></path><path id="path4" d="M302.234 29.499 C 302.165 29.568,301.692 29.705,301.183 29.803 C 299.991 30.033,299.173 30.800,300.120 30.800 C 300.494 30.800,300.800 30.637,300.800 30.437 C 300.800 30.238,301.160 30.169,301.600 30.284 C 302.040 30.399,302.400 30.298,302.400 30.059 C 302.400 29.820,302.652 29.722,302.960 29.840 C 303.267 29.958,303.631 29.873,303.768 29.651 C 303.986 29.299,302.574 29.159,302.234 29.499 M295.604 31.157 C 295.056 31.309,294.787 31.545,295.006 31.680 C 295.545 32.013,297.600 31.595,297.600 31.153 C 297.600 30.753,297.050 30.754,295.604 31.157 M276.442 36.434 C 275.915 36.645,275.571 36.905,275.678 37.011 C 275.988 37.322,278.400 36.736,278.400 36.350 C 278.400 35.909,277.676 35.940,276.442 36.434 M272.293 37.487 C 271.684 37.579,271.275 37.798,271.384 37.974 C 271.640 38.388,273.600 38.016,273.600 37.553 C 273.600 37.359,273.555 37.227,273.500 37.260 C 273.445 37.293,272.902 37.395,272.293 37.487 M251.764 43.037 C 251.030 43.289,250.333 43.399,250.215 43.281 C 250.097 43.163,250.000 43.271,250.000 43.521 C 250.000 43.780,249.700 43.869,249.300 43.729 C 248.820 43.560,248.725 43.614,249.000 43.901 C 249.438 44.361,253.200 43.662,253.200 43.122 C 253.200 42.959,253.452 42.922,253.760 43.040 C 254.067 43.158,254.431 43.073,254.568 42.851 C 254.882 42.343,253.520 42.433,251.764 43.037 M233.834 47.899 C 233.765 47.968,233.324 48.109,232.854 48.213 C 232.384 48.316,231.640 48.490,231.200 48.600 C 230.760 48.710,230.008 48.886,229.529 48.991 C 228.363 49.246,227.609 50.000,228.520 50.000 C 228.894 50.000,229.200 49.837,229.200 49.637 C 229.200 49.438,229.560 49.369,230.000 49.484 C 230.440 49.599,230.800 49.498,230.800 49.259 C 230.800 49.020,231.052 48.922,231.360 49.040 C 231.667 49.158,232.033 49.070,232.172 48.845 C 232.312 48.619,232.672 48.529,232.972 48.645 C 233.273 48.760,233.633 48.670,233.772 48.445 C 233.912 48.219,234.272 48.129,234.572 48.245 C 234.873 48.360,235.231 48.273,235.368 48.051 C 235.586 47.699,234.174 47.559,233.834 47.899 M225.900 49.876 C 225.515 49.976,225.200 50.245,225.200 50.472 C 225.200 50.700,225.485 50.776,225.833 50.643 C 226.181 50.509,226.721 50.400,227.033 50.400 C 227.345 50.400,227.600 50.220,227.600 50.000 C 227.600 49.589,227.128 49.555,225.900 49.876 M206.176 55.387 C 205.474 55.919,205.467 55.976,206.100 55.987 C 206.485 55.994,206.800 55.837,206.800 55.637 C 206.800 55.438,207.160 55.369,207.600 55.484 C 208.047 55.601,208.400 55.496,208.400 55.247 C 208.400 54.611,207.093 54.694,206.176 55.387 M201.604 56.357 C 201.056 56.509,200.787 56.745,201.006 56.880 C 201.545 57.213,203.600 56.795,203.600 56.353 C 203.600 55.953,203.050 55.954,201.604 56.357 M180.900 61.921 C 180.405 61.995,180.000 62.237,180.000 62.460 C 180.000 62.912,182.376 62.526,182.960 61.978 C 183.309 61.651,182.809 61.637,180.900 61.921 M178.836 62.769 C 178.526 62.965,177.986 63.026,177.636 62.904 C 177.186 62.747,177.119 62.812,177.407 63.128 C 177.854 63.617,179.600 63.319,179.600 62.753 C 179.600 62.320,179.544 62.321,178.836 62.769 M157.103 68.460 C 156.847 68.618,156.495 68.658,156.319 68.550 C 156.144 68.442,156.000 68.527,156.000 68.739 C 156.000 68.951,155.640 69.031,155.200 68.916 C 154.760 68.801,154.400 68.902,154.400 69.141 C 154.400 69.381,154.088 69.465,153.700 69.329 C 153.212 69.157,153.121 69.213,153.400 69.513 C 153.849 69.997,157.600 69.311,157.600 68.745 C 157.600 68.569,157.852 68.522,158.160 68.640 C 158.467 68.758,158.831 68.673,158.968 68.451 C 159.246 68.002,157.834 68.008,157.103 68.460 M136.055 74.276 C 135.672 74.567,135.598 74.780,135.876 74.787 C 136.138 74.794,136.459 74.628,136.589 74.417 C 136.719 74.207,137.072 74.129,137.372 74.245 C 137.673 74.360,138.031 74.273,138.168 74.051 C 138.516 73.489,136.858 73.665,136.055 74.276 M131.208 75.285 C 129.538 75.656,127.302 76.800,128.244 76.800 C 128.477 76.800,128.799 76.667,128.962 76.505 C 129.124 76.343,129.469 76.202,129.728 76.193 C 131.114 76.141,133.600 75.481,133.600 75.165 C 133.600 74.749,133.618 74.748,131.208 75.285 M124.500 77.248 C 123.785 77.454,123.200 77.711,123.200 77.819 C 123.200 78.109,125.338 77.553,125.780 77.148 C 126.216 76.749,126.230 76.748,124.500 77.248 M118.100 78.848 C 117.385 79.054,116.800 79.434,116.800 79.691 C 116.800 80.043,116.920 80.040,117.280 79.680 C 117.544 79.416,118.073 79.200,118.456 79.200 C 118.839 79.200,119.264 79.020,119.400 78.800 C 119.536 78.580,119.592 78.416,119.524 78.436 C 119.456 78.456,118.815 78.641,118.100 78.848 M111.600 80.654 C 110.390 80.977,108.995 81.342,108.500 81.467 C 108.005 81.591,107.600 81.867,107.600 82.080 C 107.600 82.293,107.825 82.379,108.100 82.271 C 108.375 82.164,109.905 81.756,111.500 81.365 C 113.095 80.974,114.400 80.507,114.400 80.327 C 114.400 79.922,114.307 79.933,111.600 80.654 M54.537 156.600 C 54.539 158.360,54.609 159.030,54.693 158.089 C 54.778 157.149,54.777 155.709,54.691 154.889 C 54.605 154.070,54.536 154.840,54.537 156.600 M300.600 321.815 C 299.023 322.361,299.020 322.365,300.400 322.132 C 302.032 321.857,303.700 321.248,302.800 321.256 C 302.470 321.259,301.480 321.511,300.600 321.815 M277.400 328.000 C 276.896 328.217,276.822 328.344,277.200 328.344 C 277.530 328.344,278.160 328.189,278.600 328.000 C 279.104 327.783,279.178 327.656,278.800 327.656 C 278.470 327.656,277.840 327.811,277.400 328.000 M255.000 334.000 C 254.496 334.217,254.422 334.344,254.800 334.344 C 255.130 334.344,255.760 334.189,256.200 334.000 C 256.704 333.783,256.778 333.656,256.400 333.656 C 256.070 333.656,255.440 333.811,255.000 334.000 M250.600 335.200 C 250.096 335.417,250.022 335.544,250.400 335.544 C 250.730 335.544,251.360 335.389,251.800 335.200 C 252.304 334.983,252.378 334.856,252.000 334.856 C 251.670 334.856,251.040 335.011,250.600 335.200 M229.000 341.015 C 227.423 341.561,227.420 341.565,228.800 341.332 C 230.432 341.057,232.100 340.448,231.200 340.456 C 230.870 340.459,229.880 340.711,229.000 341.015 M205.000 347.415 C 203.423 347.961,203.420 347.965,204.800 347.732 C 206.432 347.457,208.100 346.848,207.200 346.856 C 206.870 346.859,205.880 347.111,205.000 347.415 M106.000 360.953 C 106.000 361.283,106.180 361.664,106.400 361.800 C 106.620 361.936,106.800 361.777,106.800 361.447 C 106.800 361.117,106.620 360.736,106.400 360.600 C 106.180 360.464,106.000 360.623,106.000 360.953 M155.000 360.800 C 154.496 361.017,154.422 361.144,154.800 361.144 C 155.130 361.144,155.760 360.989,156.200 360.800 C 156.704 360.583,156.778 360.456,156.400 360.456 C 156.070 360.456,155.440 360.611,155.000 360.800 M135.000 366.215 C 133.423 366.761,133.420 366.765,134.800 366.532 C 136.432 366.257,138.100 365.648,137.200 365.656 C 136.870 365.659,135.880 365.911,135.000 366.215 M111.000 372.615 C 109.423 373.161,109.420 373.165,110.800 372.932 C 112.432 372.657,114.100 372.048,113.200 372.056 C 112.870 372.059,111.880 372.311,111.000 372.615 " stroke="none" fill="#7e7e7f" fill-rule="evenodd"></path></g></svg>